<?xml version="1.0" encoding="UTF-8" standalone="no"?>
<!-- Created with Inkscape (http://www.inkscape.org/) -->

<svg
   width="1532"
   height="769"
   viewBox="0 0 405.34166 203.46458"
   version="1.1"
   id="svg5"
   inkscape:version="1.1.2 (0a00cf5339, 2022-02-04)"
   sodipodi:docname="ingame-border.svg"
   inkscape:export-filename="/home/penguinencounter/Documents/workspace/GithubGameoff2022/clich/Assets/art/ingame-border.png"
   inkscape:export-xdpi="96"
   inkscape:export-ydpi="96"
   xmlns:inkscape="http://www.inkscape.org/namespaces/inkscape"
   xmlns:sodipodi="http://sodipodi.sourceforge.net/DTD/sodipodi-0.dtd"
   xmlns="http://www.w3.org/2000/svg"
   xmlns:svg="http://www.w3.org/2000/svg">
  <sodipodi:namedview
     id="namedview7"
     pagecolor="#505050"
     bordercolor="#ffffff"
     borderopacity="1"
     inkscape:pageshadow="0"
     inkscape:pageopacity="0"
     inkscape:pagecheckerboard="1"
     inkscape:document-units="mm"
     showgrid="false"
     units="px"
     width="1532px"
     inkscape:zoom="0.90535248"
     inkscape:cx="516.37347"
     inkscape:cy="400.39654"
     inkscape:window-width="1600"
     inkscape:window-height="836"
     inkscape:window-x="0"
     inkscape:window-y="0"
     inkscape:window-maximized="1"
     inkscape:current-layer="layer1"
     inkscape:snap-bbox="true"
     inkscape:snap-global="true" />
  <defs
     id="defs2" />
  <g
     inkscape:label="Layer 1"
     inkscape:groupmode="layer"
     id="layer1">
    <path
       style="fill:none;stroke:#000000;stroke-width:0.264583px;stroke-linecap:butt;stroke-linejoin:miter;stroke-opacity:1"
       d="m 13.063732,14.280452 62.163336,10.256251 49.764722,-13.057909 51.2929,6.448907 68.53074,-5.727026 51.14156,12.392789 53.12232,-9.678455 36.53073,8.952207 12.00129,49.707966 -10.47456,18.530239 11.12221,48.304949 -8.67569,46.82917 -47.1741,9.40338 -61.56224,-12.36077 -55.60674,8.4239 -49.05739,-10.54006 -60.34263,8.80667 -12.9633,-3.55993 -36.871281,5.82891 L 43.11206,181.40191 13.830731,193.2169 20.851613,130.90948 13.43195,104.87516 21.957722,44.349156 Z"
       id="path69" />
    <path
       style="fill:none;stroke:#000000;stroke-width:0.264583px;stroke-linecap:butt;stroke-linejoin:miter;stroke-opacity:1"
       d="M -3.6661698,-4.5204935 -5.5043485,206.97922 414.72545,207.6065 V -1.4335757 Z"
       id="path747" />
    <path
       style="fill:#a0a0a0;stroke:none;stroke-width:1.40819"
       d="m 593.84055,782.17573 c -336.36453,-0.54601 -611.969932,-1.39082 -612.456453,-1.87735 -0.486521,-0.48651 0.621539,-179.93453 2.462355,-398.77337 l 3.346937,-397.888795 78.925196,0.879062 C 137.40155,-14.690779 1073.8103,-7.7464479 1424.7383,-5.4093091 l 141.8754,0.9448729 V 389.59722 783.65888 l -180.6007,-0.2452 c -99.3303,-0.1349 -455.80794,-0.69194 -792.17245,-1.23795 z M 1384.2528,726.4937 c 48.7938,-9.75653 88.8532,-17.86836 89.021,-18.02629 0.1677,-0.15793 7.7091,-40.24295 16.7587,-89.07781 l 16.4538,-88.79066 -20.6312,-89.55927 c -11.3472,-49.25759 -20.6313,-90.53192 -20.6313,-91.72073 0,-1.18881 8.5548,-17.29476 19.0106,-35.79098 10.4559,-18.49623 19.0106,-34.77876 19.0106,-36.18341 0,-4.82138 -44.0636,-185.811682 -45.6192,-187.379901 -0.8553,-0.862309 -32.289,-9.052853 -69.8525,-18.201208 L 1319.476,55.130068 1219.1479,73.443006 1118.8199,91.755944 1022.0011,68.313345 925.18218,44.870747 796.33261,55.719705 667.48303,66.568662 573.13417,54.776556 c -51.89188,-6.485658 -96.45471,-11.799889 -99.02851,-11.809403 -2.5738,-0.0095 -45.73958,10.755374 -95.92397,23.92197 -50.18437,13.166595 -92.82634,23.939264 -94.75993,23.939264 -1.93358,0 -55.34102,-8.565912 -118.6832,-19.035362 C 101.39638,61.323576 49.253411,53.075212 48.865295,53.463328 c -0.388116,0.388116 6.85119,26.241997 16.087347,57.453072 l 16.793012,56.7474 -16.100313,114.46344 -16.100313,114.46342 13.878731,48.84226 c 7.633301,26.86325 13.763958,50.42652 13.623679,52.36286 -0.140284,1.93632 -6.040237,55.04155 -13.111021,118.01162 -7.070784,62.97005 -12.570294,114.77669 -12.221134,115.12585 0.34916,0.34916 24.976186,-9.18649 54.726727,-21.19033 29.75054,-12.00385 55.04241,-21.81666 56.20417,-21.80625 1.16176,0.01 21.103,9.84935 44.31386,21.86431 l 42.20158,21.84535 67.6374,-10.69734 c 37.20058,-5.88354 69.22163,-10.72395 71.15789,-10.75648 1.93626,-0.0325 13.97631,2.83765 26.75565,6.37817 l 23.23517,6.43731 113.96309,-16.65448 113.9631,-16.65449 92.72367,19.93288 92.72369,19.93287 105.24544,-15.94807 105.24548,-15.94807 114.0458,23.14489 c 62.7253,12.72969 115.3133,23.20664 116.8623,23.28212 1.549,0.0755 42.7386,-7.84541 91.5325,-17.60194 z"
       id="path786"
       transform="scale(0.26458333)" />
    <path
       style="fill:#a0a0a0;stroke:none;stroke-width:1.40819"
       d="M 827.31283,782.09034 C 438.89826,781.48504 89.792621,780.56302 51.522528,780.04143 l -69.581989,-0.94838 0.977245,-167.05217 c 1.154114,-197.28664 4.872804,-627.105706 5.428973,-627.499471 0.213238,-0.150971 54.884739,0.211882 121.492223,0.806342 238.30513,2.12683 865.73069,6.7961541 1208.93292,8.9969223 66.2202,0.4246342 149.0747,1.1535789 184.1211,1.6198772 l 63.7207,0.8478153 V 390.23562 783.65888 l -16.5463,-0.234 c -9.1004,-0.12871 -334.34,-0.72925 -722.75457,-1.33454 z m 516.26587,-46.92596 c 74.8953,-14.66166 128.7406,-25.72473 129.6546,-26.63886 0.9824,-0.98228 1.4322,-3.29507 20.0795,-103.22338 l 13.9682,-74.85461 -9.0821,-39.20894 c -19.0772,-82.36006 -31.5669,-138.12662 -31.5669,-140.94631 0,-1.61158 8.2379,-18.00372 18.3065,-36.427 11.4406,-20.93365 18.3065,-35.01316 18.3065,-37.53971 0,-6.88835 -41.9707,-179.720908 -45.0331,-185.442854 -1.0522,-1.966289 -16.795,-6.370061 -70.2275,-19.645092 -62.192,-15.451282 -69.4681,-16.98007 -75.0266,-15.763974 -3.3856,0.740684 -48.4474,9.04942 -100.1373,18.463857 l -93.9818,17.117157 -52.4702,-12.730297 C 1037.5099,71.322704 993.98409,60.770641 969.64452,54.875336 L 925.39075,44.156601 796.54499,55.026194 667.69922,65.89579 579.57912,54.86271 C 528.70016,48.492409 485.80532,43.79251 478.0812,43.741792 465.24611,43.657512 461.18994,44.5619 378.09957,66.03416 330.46747,78.343274 288.64417,88.690708 285.15889,89.028459 281.20956,89.41118 252.29391,85.32902 208.41242,78.19379 122.25918,64.185077 64.174452,54.851473 55.271538,53.58566 c -5.377512,-0.764572 -6.688912,-0.545187 -6.688912,1.118995 0,2.246206 3.988881,16.333827 21.231019,74.982055 L 81.0307,167.84095 64.960502,282.14171 48.890303,396.44248 62.219087,443.95075 c 8.569394,30.54421 13.340106,50.02243 13.36049,54.54924 0.01743,3.87253 -5.072884,52.98322 -11.311824,109.13488 -6.238938,56.15166 -11.780677,107.07753 -12.314974,113.1686 l -0.971449,11.07465 3.377273,-1.04112 c 1.857498,-0.57261 24.605766,-9.42601 50.551707,-19.67421 25.94594,-10.24821 49.63099,-19.51384 52.63346,-20.59031 l 5.45902,-1.9572 43.1236,21.85134 43.1236,21.85134 33.79661,-5.35602 c 18.58814,-2.94581 49.95562,-7.81418 69.70551,-10.81862 l 35.9089,-5.46262 19.01059,5.01249 c 10.45583,2.75688 21.87017,5.64702 25.36519,6.42257 5.43828,1.20675 22.686,-0.97781 119.61098,-15.1496 l 113.2564,-16.55967 93.02601,19.94501 93.02601,19.94502 104.91031,-15.98602 104.9103,-15.98603 19.7147,4.04066 c 113.9808,23.36118 206.5431,41.71819 210.6882,41.78378 2.8007,0.0444 25.9303,-3.99872 51.399,-8.98453 z"
       id="path825"
       transform="scale(0.26458333)" />
    <path
       style="fill:#a0a0a0;stroke:none;stroke-width:1.40819"
       d="M 792.81213,782.06057 C 423.37294,781.45875 89.89546,780.54641 51.751058,780.03314 l -69.353459,-0.93323 0.0025,-72.00265 c 0.0034,-99.04907 5.163953,-722.041158 5.98556,-722.593762 0.191843,-0.129031 55.162681,0.250476 122.157421,0.843349 249.30761,2.206259 856.23409,6.724164 1208.93292,8.9991845 65.8329,0.4246438 148.3706,1.153287 183.417,1.6192069 l 63.7207,0.8471274 V 390.23341 783.65446 l -51.047,-0.24983 c -28.0758,-0.13744 -353.3154,-0.74224 -722.75457,-1.34406 z m 596.05517,-55.94283 c 45.9104,-9.18473 83.8699,-17.09603 84.3545,-17.58063 0.938,-0.93806 2.0543,-6.7001 21.4755,-110.85292 l 12.4901,-66.98246 -13.2525,-57.64253 c -20.2795,-88.20663 -27.3029,-119.81405 -27.3029,-122.87208 0,-1.53669 8.3184,-18.10569 18.4852,-36.82002 17.649,-32.4868 18.4468,-34.30641 17.6357,-40.22428 -1.405,-10.25105 -38.9126,-165.35442 -43.3143,-179.11594 -1.3005,-4.065735 -2.4679,-4.848419 -11.0384,-7.400826 -20.229,-6.02447 -124.9415,-31.301424 -129.6283,-31.291494 -2.7108,0.0058 -48.7819,8.057385 -102.3802,17.892535 l -97.4515,17.882092 -96.8731,-23.476491 -96.87312,-23.47649 -50.70081,4.318375 C 746.87968,59.343892 706.79629,62.68937 686.49363,64.165583 L 664.66665,65.75263 585.80789,55.838159 C 542.43558,50.385202 498.71122,45.178116 488.64264,44.266859 L 470.33615,42.61003 411.19208,57.750594 c -113.53354,29.06398 -123.9524,31.62772 -128.61764,31.64859 -2.58322,0.01155 -38.06966,-5.385121 -78.85876,-11.992617 C 74.901337,56.539718 49.685229,52.643394 48.851274,53.477348 48.095931,54.232692 56.878351,85.85124 73.953781,143.85161 l 7.111367,24.15528 -16.087432,114.31966 -16.087433,114.31967 9.057658,31.91629 c 4.981712,17.55396 11.1788,40.15422 13.771307,50.22279 l 4.713648,18.3065 -11.742601,106.3185 C 51.625008,721.70451 50.644563,731.55577 51.936628,731.55577 c 0.830424,0 12.318825,-4.46559 83.145002,-32.31879 13.88346,-5.45983 26.11558,-9.92697 27.1825,-9.92697 1.75508,0 66.02484,31.76548 80.17097,39.62469 l 5.85883,3.25501 15.96815,-2.38655 c 8.78247,-1.3126 38.46401,-5.91875 65.95896,-10.2359 27.49495,-4.31715 53.15925,-7.86684 57.03177,-7.88819 4.02842,-0.0222 16.0786,2.45624 28.16385,5.79266 16.93113,4.67425 22.52013,5.66712 28.16384,5.0033 3.87253,-0.45551 55.41934,-7.86351 114.54846,-16.46223 l 107.5075,-15.63404 93.15987,19.93639 93.15986,19.93641 83.08333,-12.64763 c 45.69584,-6.9562 92.90548,-14.12373 104.91028,-15.92785 l 21.827,-3.2802 82.3792,16.65225 c 45.3086,9.15874 96.0035,19.44614 112.6554,22.86088 23.6563,4.85114 32.2775,6.06648 39.4294,5.55846 5.0343,-0.35761 46.7162,-8.16498 92.6265,-17.34973 z"
       id="path864"
       transform="scale(0.26458333)" />
    <path
       style="fill:#a0a0a0;stroke:none;stroke-width:1.40819"
       d="m 756.90323,782.07287 c -351.2383,-0.61342 -669.282828,-1.53462 -706.765611,-2.0471 l -68.150513,-0.93177 0.931238,-194.5124 c 0.51218,-106.98182 1.228895,-202.75032 1.592699,-212.8189 0.363804,-10.06857 0.990322,-77.55618 1.392262,-149.97245 0.40194,-72.41628 1.135983,-155.632776 1.631207,-184.925554 l 0.900407,-53.259593 21.976749,0.788329 c 12.087212,0.433581 77.424311,1.130921 145.193552,1.549646 110.17247,0.68072 229.32004,1.560468 568.2055,4.1954515 122.3341,0.9512015 433.25418,3.1385058 597.77748,4.2053297 64.6713,0.4193496 146.2584,1.1463156 181.3048,1.6154802 l 63.7207,0.8530264 V 390.23562 783.65888 l -85.5477,-0.23534 c -47.0512,-0.12941 -372.9245,-0.73723 -724.16277,-1.35067 z m 622.42087,-54.11734 c 40.6616,-8.07554 78.4835,-15.69314 84.0488,-16.928 l 10.1187,-2.24518 1.4862,-6.93026 c 0.8175,-3.81164 7.5303,-39.40198 14.9174,-79.08963 7.3871,-39.68766 14.3098,-76.57812 15.3838,-81.97882 l 1.9528,-9.81946 -6.8425,-29.60991 c -18.0283,-78.01615 -32.515,-142.37871 -33.2448,-147.70361 -0.7433,-5.42248 0.1933,-7.72741 11.822,-29.0933 19.3339,-35.52277 24.2785,-45.38272 24.2785,-48.41364 0,-4.54949 -36.5017,-156.75356 -42.996,-179.283594 -2.0568,-7.135615 -2.3286,-7.409763 -9.4848,-9.568658 -9.8237,-2.963603 -111.9685,-28.22176 -123.3556,-30.503085 -10.451,-2.093811 -5.3564,-2.877247 -129.9845,19.988799 L 1119.0263,91.16118 1056.6049,76.046103 C 1022.2732,67.73281 978.67521,57.185268 959.72054,52.60712 l -34.46304,-8.323904 -92.27424,7.796011 c -50.75084,4.287807 -109.06693,9.14635 -129.59133,10.796762 L 666.07484,65.87674 585.80789,55.888495 C 541.66107,50.394961 497.61987,45.156252 487.93855,44.246921 l -17.6024,-1.65333 -52.80721,13.546561 c -29.04396,7.450607 -70.12838,17.986593 -91.29872,23.413302 -21.17034,5.426708 -40.59992,9.866741 -43.17686,9.866741 -5.09837,0 -22.03719,-2.588404 -101.39659,-15.494321 -28.6567,-4.660332 -68.2621,-11.003676 -88.011998,-14.096321 -19.749894,-3.092645 -37.968379,-5.96656 -40.485522,-6.38648 -2.706744,-0.45155 -4.576624,-0.168127 -4.576624,0.69369 0,1.902329 5.361811,20.919696 20.323725,72.084557 l 12.20286,41.72979 -10.670095,75.85425 c -5.868552,41.71983 -13.114952,93.10635 -16.10311,114.19225 l -5.433016,38.33803 9.053866,32.07157 c 4.979628,17.63938 11.187634,40.30952 13.795572,50.37809 l 4.741704,18.3065 -10.965782,99.27753 C 51.579719,722.65179 50.821933,730.0399 51.725325,730.94329 c 0.411634,0.41163 24.963772,-8.78745 54.560305,-20.44243 29.59654,-11.65497 54.80478,-21.19085 56.01833,-21.19085 2.21192,0 80.13654,38.65391 82.65105,40.99843 2.22052,2.07039 6.04963,1.61366 71.1296,-8.48436 34.49548,-5.35244 64.93696,-10.03775 67.64772,-10.41182 3.16392,-0.4366 13.85055,1.59162 29.84589,5.66445 l 24.91721,6.34458 68.72756,-9.95998 c 37.80016,-5.478 89.00553,-12.92815 113.78971,-16.55589 l 45.06214,-6.5959 92.83878,19.96329 92.83877,19.96329 27.56165,-4.24654 c 23.49178,-3.6195 132.56566,-20.15033 170.46136,-25.83451 l 11.9379,-1.79063 113.3912,22.94981 c 97.6134,19.75647 114.5669,22.83672 121.8404,22.13698 4.647,-0.44708 41.7177,-7.42013 82.3792,-15.49568 z"
       id="path903"
       transform="scale(0.26458333)" />
    <path
       style="fill:#a0a0a0;stroke:none;stroke-width:1.40819"
       d="m 1324.2873,783.14639 c -0.3227,-0.28186 -287.6467,-1.02937 -638.49777,-1.66113 C 334.93848,780.85351 43.759568,780.18149 38.725281,779.99188 33.690995,779.80226 18.863054,779.59924 5.7743,779.54072 l -23.797734,-0.10642 0.946095,-198.90713 c 0.520353,-109.39892 1.237231,-205.24399 1.593064,-212.98904 0.355832,-7.74506 0.978786,-74.59898 1.384341,-148.56427 0.617387,-112.59934 1.994481,-233.987777 2.661767,-234.630161 0.09495,-0.0914 55.303349,0.326894 122.685337,0.929551 67.38199,0.602657 178.27712,1.473136 246.43361,1.934398 68.1565,0.461262 154.65469,1.148911 192.21822,1.528109 37.56352,0.379198 118.67538,1.01122 180.24858,1.4044936 191.03214,1.2201388 315.72132,2.0995538 399.92652,2.8206239 44.5341,0.3813564 132.9334,1.0168226 196.4428,1.4121471 63.5095,0.3953244 143.5124,1.105804 177.7843,1.5788436 l 62.3125,0.8600725 V 390.23541 783.65888 h -120.8698 c -66.4785,0 -121.1339,-0.23062 -121.4566,-0.51249 z m 5.7501,-45.49582 c 46.3839,-8.88237 142.5207,-28.44982 143.222,-29.15101 1.087,-1.08709 32.8673,-171.45071 33.001,-176.90706 0.066,-2.71077 -8.2016,-40.95068 -18.3731,-84.97756 -10.1717,-44.02689 -19.2157,-84.26597 -20.0979,-89.4202 l -1.6042,-9.3713 14.1618,-26.05156 c 7.789,-14.32835 16.2361,-30.27359 18.7715,-35.43385 l 4.6097,-9.38231 -7.3856,-32.15936 c -7.0253,-30.59039 -33.5766,-138.96245 -36.7608,-150.043575 -1.7469,-6.07856 1.5027,-4.84266 -42.2365,-16.063945 -46.6335,-11.963827 -93.7711,-23.060904 -98.1462,-23.105441 -2.1712,-0.02211 -48.1212,7.977852 -102.1109,17.777674 l -98.1632,17.81786 -62.3707,-15.092138 C 1022.2504,67.786118 978.71667,57.238284 959.81265,52.647164 l -34.37094,-8.347492 -92.36635,7.790436 c -50.80148,4.28474 -109.15903,9.157863 -129.68343,10.829161 l -37.31709,3.038723 -69.00141,-8.654961 C 559.12266,52.542803 515.37193,47.256385 499.84958,45.555437 l -28.22243,-3.092634 -47.81994,12.204784 c -26.30095,6.712631 -67.62791,17.278043 -91.83766,23.478696 -24.20974,6.200651 -46.18625,11.273912 -48.8367,11.273912 -5.23334,0 -27.26278,-3.377427 -114.8539,-17.608746 C 85.200656,58.313351 49.50084,52.827783 48.865953,53.46267 c -0.688102,0.688102 4.644288,19.968954 20.311365,73.44182 l 12.014037,41.0048 -14.220046,101.2226 C 59.150282,324.80433 51.914111,376.2513 50.890926,383.45848 l -1.860336,13.10398 8.275235,29.14179 c 4.55138,16.02798 10.744643,38.67719 13.762809,50.33158 l 5.487575,21.1898 -8.366735,75.27136 C 58.040786,663.79971 51.39901,725.6965 51.39901,728.97258 c 0,3.08172 -0.402078,3.21979 61.75304,-21.20566 25.83186,-10.15131 48.01088,-18.44763 49.28672,-18.43628 1.27584,0.0113 7.70603,2.75171 14.28933,6.08968 6.5833,3.33797 25.54124,12.91774 42.12877,21.28838 l 30.15914,15.21934 10.67843,-1.5436 c 5.87313,-0.84899 35.07536,-5.31234 64.89383,-9.91856 29.81847,-4.60624 56.4333,-8.6818 59.14406,-9.0568 3.15005,-0.43578 13.93864,1.58688 29.8957,5.60484 l 24.96702,6.28668 48.96306,-7.08494 c 26.92969,-3.89671 78.11264,-11.31527 113.7399,-16.48569 l 64.77683,-9.40077 92.94068,19.90763 92.94067,19.90761 32.38842,-4.97238 c 17.81363,-2.73482 65.02327,-9.90731 104.91031,-15.93886 l 72.52188,-10.96647 96.4612,19.51259 c 133.199,26.94409 130.6095,26.46604 138.7069,25.60701 3.8725,-0.41084 18.7641,-2.99193 33.0925,-5.73576 z"
       id="path942"
       transform="scale(0.26458333)" />
    <path
       style="mix-blend-mode:multiply;fill:#000000;stroke:#1a1a1a;stroke-width:40;stroke-miterlimit:4;stroke-dasharray:none"
       d="m 1275.0006,783.14769 c -0.3228,-0.28116 -274.3393,-0.92017 -608.92576,-1.42003 -334.58643,-0.49987 -625.384305,-1.323 -646.217499,-1.82918 l -37.878532,-0.92032 1.03305,-206.9106 c 0.568177,-113.80083 1.229581,-208.59274 1.469785,-210.64869 0.240204,-2.05595 0.896289,-75.02781 1.457965,-162.15969 0.561677,-87.13189 1.181001,-160.005826 1.376277,-161.942091 0.195275,-1.936264 0.435919,-14.830487 0.534764,-28.6538295 l 0.179718,-25.1333505 37.669137,0.833444 c 20.718026,0.458394 93.116695,1.155615 160.885945,1.54938 67.76924,0.393765 156.80218,1.030044 197.85098,1.413955 131.52883,1.230128 251.24737,2.128059 466.81567,3.5012792 115.78859,0.7376004 241.8922,1.6744171 280.2302,2.0818148 38.338,0.4073977 136.2426,1.1353822 217.5657,1.6177433 81.3231,0.4823611 152.6128,1.0325605 158.4216,1.222665 5.8088,0.1901047 21.4925,0.4319739 34.8527,0.5374872 l 24.2914,0.1918424 V 390.0692 783.65888 h -145.5132 c -80.0323,0 -145.7772,-0.23003 -146.0999,-0.51119 z m 64.19,-47.47313 c 52.8394,-10.25128 133.5352,-26.64151 134.1388,-27.24508 0.8463,-0.84623 31.2766,-164.03629 32.1873,-172.6124 0.6478,-6.09936 -0.3774,-12.98138 -4.8245,-32.38842 -21.1531,-92.31236 -32.7877,-144.23292 -33.5238,-149.60345 -0.807,-5.88717 -0.084,-7.64068 13.2435,-32.16574 7.7532,-14.26654 16.1676,-30.15367 18.6984,-35.30478 l 4.6015,-9.36564 -5.2835,-23.02278 c -6.7099,-29.23812 -21.3633,-89.81932 -31.6259,-130.74947 l -7.9444,-31.684316 -4.9483,-2.428405 C 1449.0368,86.712667 1353.4501,62.398895 1329.958,57.575291 l -12.0491,-2.47402 -99.614,18.071889 -99.6139,18.071888 -32.6767,-7.941628 C 1068.0322,78.935525 1024.6036,68.393524 989.49637,59.87675 L 925.66508,44.391707 825.44199,52.817647 C 770.3193,57.451914 712.16973,62.314408 696.22071,63.623189 l -28.99819,2.379602 -82.24898,-10.11234 C 539.73661,50.328664 495.75401,45.092018 487.23445,44.25346 469.78794,42.536248 472.93758,41.955314 406.26341,59.188084 290.61458,89.078961 287.74773,89.744498 278.11793,88.936897 273.08364,88.514698 225.87401,81.216975 173.20762,72.719735 48.539887,52.605735 50.871722,52.956635 49.608435,54.120236 48.638703,55.013445 58.471697,90.788907 75.40753,147.9853 l 5.874563,19.8398 -11.562972,82.25412 c -6.359635,45.23976 -13.622723,96.72483 -16.140199,114.41125 l -4.577227,32.15715 4.770733,16.42548 c 2.623902,9.03402 8.836362,31.49775 13.805468,49.91941 l 9.034735,33.49392 -11.869885,108.73348 c -6.528436,59.80341 -12.26372,112.37716 -12.745076,116.83057 -0.742343,6.86802 -0.53092,8.0971 1.392842,8.0971 1.247419,0 25.763721,-9.18845 54.480668,-20.41878 28.71696,-11.23034 53.3132,-20.41879 54.65831,-20.41879 1.34511,0 21.37028,9.59603 44.50036,21.32452 l 42.0547,21.32451 69.63887,-10.70528 69.63887,-10.70527 24.79273,6.34564 c 17.66813,4.52211 26.41137,6.12853 30.42548,5.59018 3.09802,-0.4155 53.79293,-7.77319 112.65536,-16.35045 67.46362,-9.83058 109.17537,-15.31969 112.84668,-14.8502 3.20326,0.40965 45.54759,9.30519 94.09854,19.76789 l 88.27444,19.0231 50.94525,-7.70729 c 28.01988,-4.23901 75.32731,-11.41528 105.12763,-15.94728 l 54.1824,-8.23999 30.3091,6.14146 c 77.5694,15.71765 191.2634,38.40958 195.0676,38.93313 6.5123,0.89624 14.1094,-0.209 52.1031,-7.58012 z"
       id="path981"
       transform="scale(0.26458333)" />
  </g>
</svg>
